<svg width="100" height="100" viewBox="0 0 100 100" fill="none" xmlns="http://www.w3.org/2000/svg">
<circle cx="50" cy="50" r="50" fill="#EDEDED"/>
<circle cx="50" cy="50" r="40" fill="#FAFAFA"/>
<path fill-rule="evenodd" clip-rule="evenodd" d="M89.9998 50C89.9998 72.0914 72.0912 90 49.9998 90C27.9084 90 9.99979 72.0914 9.99979 50C9.99979 27.9086 27.9084 10 49.9998 10C72.0912 10 89.9998 27.9086 89.9998 50ZM99.9998 50C99.9998 77.6142 77.614 100 49.9998 100C22.3856 100 -0.000212669 77.6142 -0.000212669 50C-0.000212669 22.3858 22.3856 0 49.9998 0C77.614 0 99.9998 22.3858 99.9998 50Z" fill="url(#paint0_linear_159_160)"/>
<mask id="mask0_159_160" style="mask-type:alpha" maskUnits="userSpaceOnUse" x="23" y="19" width="55" height="55">
<rect x="43" y="19" width="40" height="40" transform="rotate(30 43 19)" fill="#D9D9D9"/>
</mask>
<g mask="url(#mask0_159_160)">
<path d="M51.8903 43.6665C53.1545 44.3964 54.483 44.5735 55.876 44.1981C57.2691 43.8223 58.3306 43.0024 59.0605 41.7382C59.7903 40.4741 59.9673 39.1456 59.5915 37.7527C59.216 36.3597 58.3962 35.2983 57.132 34.5684C55.8678 33.8386 54.5393 33.6614 53.1463 34.0369C51.7534 34.4127 50.6921 35.2327 49.9622 36.4969C49.2323 37.7611 49.0552 39.0895 49.4308 40.4822C49.8066 41.8754 50.6264 42.9368 51.8903 43.6665ZM41.5105 61.7781C41.3491 61.6849 41.2153 61.5728 41.109 61.4419C41.0026 61.3112 40.92 61.1487 40.8613 60.9544L39.19 55.2099C39.1312 55.0156 39.1099 54.835 39.1262 54.6679C39.1424 54.5009 39.1928 54.335 39.2774 54.1702C39.3619 54.005 39.4707 53.8674 39.6038 53.7573C39.7372 53.6469 39.901 53.5624 40.0953 53.5036L43.6333 52.4031L42.7287 49.0258C42.6742 48.8234 42.661 48.6379 42.6891 48.4693C42.7167 48.3009 42.7762 48.1375 42.8676 47.9792C42.959 47.8209 43.0701 47.6888 43.2009 47.5827C43.3316 47.4764 43.4982 47.3961 43.7007 47.3421L46.5844 46.5691L47.1261 45.6309C45.6376 44.0979 44.7763 42.2749 44.5424 40.1618C44.3083 38.0489 44.7445 36.0341 45.8511 34.1176C47.24 31.7119 49.2625 30.1533 51.9186 29.4416C54.5748 28.7298 57.1057 29.0684 59.5113 30.4573C61.917 31.8462 63.4756 33.8687 64.1873 36.5249C64.8991 39.1811 64.5605 41.7119 63.1716 44.1176C62.0095 46.1304 60.4648 47.5186 58.5376 48.2823C56.6105 49.0461 54.635 49.2179 52.6109 48.7976L45.7915 60.6091C45.7029 60.7625 45.589 60.895 45.4499 61.0065C45.3108 61.118 45.14 61.2008 44.9375 61.2549L42.5362 61.8983C42.3412 61.9506 42.1618 61.967 41.9982 61.9476C41.8345 61.9278 41.672 61.8713 41.5105 61.7781Z" fill="url(#paint1_linear_159_160)"/>
</g>
<path d="M42.6203 70.1003C43.1163 70.1003 43.4923 69.9963 43.7483 69.7883C44.0123 69.5723 44.1443 69.2963 44.1443 68.9603V68.8643C44.1443 68.4963 44.0243 68.2043 43.7843 67.9883C43.5443 67.7723 43.2163 67.6643 42.8003 67.6643C42.0323 67.6643 41.4323 68.0283 41.0003 68.7563L39.9803 67.8323C40.3003 67.3763 40.6883 67.0203 41.1443 66.7643C41.6003 66.5003 42.1683 66.3683 42.8483 66.3683C43.4323 66.3683 43.9443 66.4603 44.3843 66.6443C44.8323 66.8283 45.1803 67.0963 45.4283 67.4483C45.6763 67.7923 45.8003 68.1963 45.8003 68.6603C45.8003 69.1963 45.6403 69.6403 45.3203 69.9923C45.0083 70.3363 44.6083 70.5643 44.1203 70.6763V70.7363C44.6563 70.8403 45.0963 71.0763 45.4403 71.4443C45.7843 71.8123 45.9563 72.2923 45.9563 72.8843C45.9563 73.3963 45.8203 73.8483 45.5483 74.2403C45.2843 74.6323 44.9083 74.9363 44.4203 75.1523C43.9403 75.3683 43.3843 75.4763 42.7523 75.4763C41.9843 75.4763 41.3563 75.3283 40.8683 75.0323C40.3803 74.7363 39.9763 74.3443 39.6563 73.8563L40.8083 72.9563C41.0323 73.3483 41.2963 73.6523 41.6003 73.8683C41.9043 74.0763 42.2883 74.1803 42.7523 74.1803C43.2483 74.1803 43.6323 74.0603 43.9043 73.8203C44.1763 73.5723 44.3123 73.2323 44.3123 72.8003V72.7043C44.3123 72.2883 44.1683 71.9723 43.8803 71.7563C43.5923 71.5323 43.1763 71.4203 42.6323 71.4203H41.7443V70.1003H42.6203ZM48.2712 77.2283H46.9872L50.5632 65.9963H51.8592L48.2712 77.2283ZM55.675 70.1003C56.171 70.1003 56.547 69.9963 56.803 69.7883C57.067 69.5723 57.199 69.2963 57.199 68.9603V68.8643C57.199 68.4963 57.079 68.2043 56.839 67.9883C56.599 67.7723 56.271 67.6643 55.855 67.6643C55.087 67.6643 54.487 68.0283 54.055 68.7563L53.035 67.8323C53.355 67.3763 53.743 67.0203 54.199 66.7643C54.655 66.5003 55.223 66.3683 55.903 66.3683C56.487 66.3683 56.999 66.4603 57.439 66.6443C57.887 66.8283 58.235 67.0963 58.483 67.4483C58.731 67.7923 58.855 68.1963 58.855 68.6603C58.855 69.1963 58.695 69.6403 58.375 69.9923C58.063 70.3363 57.663 70.5643 57.175 70.6763V70.7363C57.711 70.8403 58.151 71.0763 58.495 71.4443C58.839 71.8123 59.011 72.2923 59.011 72.8843C59.011 73.3963 58.875 73.8483 58.603 74.2403C58.339 74.6323 57.963 74.9363 57.475 75.1523C56.995 75.3683 56.439 75.4763 55.807 75.4763C55.039 75.4763 54.411 75.3283 53.923 75.0323C53.435 74.7363 53.031 74.3443 52.711 73.8563L53.863 72.9563C54.087 73.3483 54.351 73.6523 54.655 73.8683C54.959 74.0763 55.343 74.1803 55.807 74.1803C56.303 74.1803 56.687 74.0603 56.959 73.8203C57.231 73.5723 57.367 73.2323 57.367 72.8003V72.7043C57.367 72.2883 57.223 71.9723 56.935 71.7563C56.647 71.5323 56.231 71.4203 55.687 71.4203H54.799V70.1003H55.675Z" fill="#323232"/>
<defs>
<linearGradient id="paint0_linear_159_160" x1="53.3544" y1="0" x2="53.3544" y2="100" gradientUnits="userSpaceOnUse">
<stop stop-color="#E9D169"/>
<stop offset="1" stop-color="#9C6C4C"/>
</linearGradient>
<linearGradient id="paint1_linear_159_160" x1="54" y1="25.4" x2="44.9" y2="72.6" gradientUnits="userSpaceOnUse">
<stop stop-color="#202020"/>
<stop offset="1" stop-color="#323232"/>
</linearGradient>
</defs>
</svg>
