<svg width="80" height="80" viewBox="0 0 80 80" fill="none" xmlns="http://www.w3.org/2000/svg">
<circle cx="40" cy="40" r="40" fill="#EDEDED"/>
<path d="M40 0C45.2528 2.24176e-05 50.4546 1.03475 55.3076 3.04492C60.1605 5.05511 64.5699 8.00158 68.2842 11.7158C71.9984 15.4301 74.9449 19.8395 76.9551 24.6924C78.9652 29.5454 80 34.7471 80 40H72C72 22.6032 58.1174 8.44904 40.8262 8.01074L40 8V0Z" fill="url(#paint0_linear_1430_1567)"/>
<mask id="mask0_1430_1567" style="mask-type:alpha" maskUnits="userSpaceOnUse" x="17" y="12" width="47" height="47">
<rect x="34.0625" y="12" width="34.1249" height="34.1249" transform="rotate(30 34.0625 12)" fill="#D9D9D9"/>
</mask>
<g mask="url(#mask0_1430_1567)">
<path d="M41.6468 33.0434C42.7253 33.6661 43.8587 33.8173 45.0471 33.4969C46.2356 33.1764 47.1412 32.4769 47.7639 31.3984C48.3865 30.3199 48.5375 29.1865 48.2169 27.9982C47.8965 26.8099 47.1971 25.9043 46.1186 25.2817C45.0402 24.659 43.9067 24.5079 42.7184 24.8282C41.5301 25.1489 40.6246 25.8484 40.0019 26.9269C39.3793 28.0054 39.2282 29.1387 39.5486 30.3269C39.8692 31.5154 40.5686 32.4209 41.6468 33.0434ZM32.7916 48.4949C32.6539 48.4154 32.5397 48.3197 32.4491 48.208C32.3583 48.0965 32.2879 47.9579 32.2377 47.7921L30.8119 42.8914C30.7618 42.7256 30.7436 42.5715 30.7575 42.429C30.7713 42.2865 30.8143 42.145 30.8865 42.0044C30.9585 41.8635 31.0514 41.746 31.165 41.6521C31.2787 41.558 31.4185 41.4858 31.5842 41.4357L34.6026 40.4968L33.8308 37.6156C33.7844 37.4429 33.7731 37.2847 33.7971 37.1409C33.8207 36.9971 33.8714 36.8578 33.9494 36.7227C34.0274 36.5877 34.1222 36.4749 34.2338 36.3845C34.3453 36.2937 34.4874 36.2253 34.6601 36.1792L37.1203 35.5197L37.5824 34.7193C36.3125 33.4115 35.5778 31.8562 35.3782 30.0535C35.1785 28.2509 35.5506 26.5321 36.4946 24.897C37.6795 22.8448 39.405 21.515 41.671 20.9078C43.9371 20.3007 46.0962 20.5895 48.1485 21.7744C50.2008 22.9593 51.5305 24.6848 52.1377 26.9508C52.7449 29.2168 52.456 31.376 51.2712 33.4283C50.2798 35.1454 48.962 36.3298 47.3178 36.9813C45.6738 37.6329 43.9884 37.7794 42.2616 37.4209L36.4438 47.4975C36.3682 47.6285 36.2711 47.7415 36.1524 47.8366C36.0338 47.9317 35.888 48.0023 35.7153 48.0485L33.6666 48.5974C33.5002 48.642 33.3473 48.656 33.2077 48.6394C33.068 48.6226 32.9293 48.5744 32.7916 48.4949Z" fill="url(#paint1_linear_1430_1567)"/>
</g>
<path d="M36.152 61.716V63H30.152V61.716H32.564V55.344H32.456L30.5 57.588L29.528 56.76L31.712 54.204H34.136V61.716H36.152ZM37.9626 64.908H36.6786L40.2546 53.676H41.5506L37.9626 64.908ZM47.9944 61.284V63H46.4944V61.284H42.4864V59.94L46.0384 54.204H47.9944V60.048H49.1704V61.284H47.9944ZM46.4944 55.728H46.3864L43.7824 60.048H46.4944V55.728Z" fill="#323232"/>
<defs>
<linearGradient id="paint0_linear_1430_1567" x1="42.6835" y1="0" x2="42.6835" y2="80" gradientUnits="userSpaceOnUse">
<stop stop-color="#E9D169"/>
<stop offset="1" stop-color="#9C6C4C"/>
</linearGradient>
<linearGradient id="paint1_linear_1430_1567" x1="43.4467" y1="17.4599" x2="35.6833" y2="57.7273" gradientUnits="userSpaceOnUse">
<stop stop-color="#E9D169"/>
<stop offset="1" stop-color="#9C6C4C"/>
</linearGradient>
</defs>
</svg>
