<svg width="80" height="80" viewBox="0 0 80 80" fill="none" xmlns="http://www.w3.org/2000/svg">
<circle cx="40" cy="40" r="40" fill="#EDEDED"/>
<path d="M40 0C45.2528 2.24176e-05 50.4546 1.03475 55.3076 3.04492C60.1605 5.05511 64.5699 8.00158 68.2842 11.7158C71.9984 15.4301 74.9449 19.8395 76.9551 24.6924C78.9652 29.5454 80 34.7471 80 40L79.9883 40.9844C79.8672 45.9018 78.8396 50.758 76.9551 55.3076L76.5674 56.2119C74.5738 60.7087 71.7664 64.802 68.2842 68.2842C64.5699 71.9984 60.1605 74.9449 55.3076 76.9551L54.3936 77.3203C49.8041 79.0904 44.9246 80 40 80V72C57.673 71.9999 72 57.6731 72 40C72 22.6032 58.1174 8.44904 40.8262 8.01074L40 8V0Z" fill="url(#paint0_linear_1430_1577)"/>
<mask id="mask0_1430_1577" style="mask-type:alpha" maskUnits="userSpaceOnUse" x="17" y="12" width="47" height="47">
<rect x="34.0625" y="12" width="34.1249" height="34.1249" transform="rotate(30 34.0625 12)" fill="#D9D9D9"/>
</mask>
<g mask="url(#mask0_1430_1577)">
<path d="M41.6473 33.0434C42.7258 33.6661 43.8592 33.8173 45.0476 33.4969C46.2361 33.1764 47.1417 32.4769 47.7644 31.3984C48.387 30.3199 48.538 29.1865 48.2174 27.9982C47.897 26.8099 47.1976 25.9043 46.1191 25.2817C45.0407 24.659 43.9072 24.5079 42.7188 24.8282C41.5306 25.1489 40.6251 25.8484 40.0024 26.9269C39.3798 28.0054 39.2287 29.1387 39.5491 30.3269C39.8696 31.5154 40.5691 32.4209 41.6473 33.0434ZM32.7921 48.4949C32.6544 48.4154 32.5402 48.3197 32.4496 48.208C32.3588 48.0965 32.2883 47.9579 32.2382 47.7921L30.8124 42.8914C30.7623 42.7256 30.7441 42.5715 30.758 42.429C30.7718 42.2865 30.8148 42.145 30.887 42.0044C30.959 41.8635 31.0519 41.746 31.1655 41.6521C31.2792 41.558 31.419 41.4858 31.5847 41.4357L34.6031 40.4968L33.8313 37.6156C33.7849 37.4429 33.7736 37.2847 33.7975 37.1409C33.8211 36.9971 33.8719 36.8578 33.9499 36.7227C34.0279 36.5877 34.1226 36.4749 34.2342 36.3845C34.3458 36.2937 34.4879 36.2253 34.6606 36.1792L37.1207 35.5197L37.5829 34.7193C36.313 33.4115 35.5783 31.8562 35.3787 30.0535C35.179 28.2509 35.5511 26.5321 36.4951 24.897C37.68 22.8448 39.4055 21.515 41.6715 20.9078C43.9375 20.3007 46.0967 20.5895 48.149 21.7744C50.2013 22.9593 51.531 24.6848 52.1382 26.9508C52.7454 29.2168 52.4565 31.376 51.2716 33.4283C50.2802 35.1454 48.9624 36.3298 47.3183 36.9813C45.6743 37.6329 43.9889 37.7794 42.2621 37.4209L36.4443 47.4975C36.3687 47.6285 36.2716 47.7415 36.1529 47.8366C36.0342 47.9317 35.8885 48.0023 35.7158 48.0485L33.6671 48.5974C33.5007 48.642 33.3478 48.656 33.2082 48.6394C33.0685 48.6226 32.9298 48.5744 32.7921 48.4949Z" fill="url(#paint1_linear_1430_1577)"/>
</g>
<path d="M29.804 63V61.524L32.588 59.076C33.068 58.652 33.416 58.268 33.632 57.924C33.848 57.58 33.956 57.22 33.956 56.844V56.664C33.956 56.28 33.828 55.976 33.572 55.752C33.324 55.528 33 55.416 32.6 55.416C31.8 55.416 31.276 55.864 31.028 56.76L29.648 56.22C29.864 55.58 30.224 55.06 30.728 54.66C31.24 54.252 31.912 54.048 32.744 54.048C33.344 54.048 33.86 54.16 34.292 54.384C34.724 54.608 35.052 54.92 35.276 55.32C35.508 55.712 35.624 56.16 35.624 56.664C35.624 57.12 35.532 57.54 35.348 57.924C35.164 58.308 34.92 58.66 34.616 58.98C34.312 59.3 33.92 59.656 33.44 60.048L31.508 61.668H35.864V63H29.804ZM37.9626 64.908H36.6786L40.2546 53.676H41.5506L37.9626 64.908ZM47.9944 61.284V63H46.4944V61.284H42.4864V59.94L46.0384 54.204H47.9944V60.048H49.1704V61.284H47.9944ZM46.4944 55.728H46.3864L43.7824 60.048H46.4944V55.728Z" fill="#323232"/>
<defs>
<linearGradient id="paint0_linear_1430_1577" x1="42.6835" y1="0" x2="42.6835" y2="80" gradientUnits="userSpaceOnUse">
<stop stop-color="#E9D169"/>
<stop offset="1" stop-color="#9C6C4C"/>
</linearGradient>
<linearGradient id="paint1_linear_1430_1577" x1="43.4472" y1="17.4599" x2="35.6837" y2="57.7273" gradientUnits="userSpaceOnUse">
<stop stop-color="#E9D169"/>
<stop offset="1" stop-color="#9C6C4C"/>
</linearGradient>
</defs>
</svg>
