<svg width="80" height="80" viewBox="0 0 80 80" fill="none" xmlns="http://www.w3.org/2000/svg">
<circle cx="40" cy="40" r="40" fill="#EDEDED"/>
<path d="M40 0C47.9111 3.37478e-05 55.6448 2.34603 62.2227 6.74121C68.8005 11.1364 73.9276 17.3835 76.9551 24.6924C79.9826 32.0014 80.7748 40.0445 79.2314 47.8037L79.0801 48.5293C77.4481 56.0069 73.7034 62.8649 68.2842 68.2842C62.6901 73.8782 55.5629 77.688 47.8037 79.2314L47.0752 79.3691C39.5423 80.723 31.7729 79.8879 24.6924 76.9551C17.3835 73.9276 11.1364 68.8005 6.74121 62.2227C2.346 55.6447 0 47.9112 0 40H8C8 57.6731 22.3269 72 40 72C57.673 71.9999 72 57.6731 72 40C72 22.6032 58.1174 8.44904 40.8262 8.01074L40 8V0Z" fill="url(#paint0_linear_1430_1587)"/>
<mask id="mask0_1430_1587" style="mask-type:alpha" maskUnits="userSpaceOnUse" x="17" y="12" width="47" height="47">
<rect x="34.0625" y="12" width="34.1249" height="34.1249" transform="rotate(30 34.0625 12)" fill="#D9D9D9"/>
</mask>
<g mask="url(#mask0_1430_1587)">
<path d="M41.6473 33.0434C42.7258 33.6661 43.8592 33.8173 45.0476 33.4969C46.2361 33.1764 47.1417 32.4769 47.7644 31.3984C48.387 30.3199 48.538 29.1865 48.2174 27.9982C47.897 26.8099 47.1976 25.9043 46.1191 25.2817C45.0407 24.659 43.9072 24.5079 42.7188 24.8282C41.5306 25.1489 40.6251 25.8484 40.0024 26.9269C39.3798 28.0054 39.2287 29.1387 39.5491 30.3269C39.8696 31.5154 40.5691 32.4209 41.6473 33.0434ZM32.7921 48.4949C32.6544 48.4154 32.5402 48.3197 32.4496 48.208C32.3588 48.0965 32.2883 47.9579 32.2382 47.7921L30.8124 42.8914C30.7623 42.7256 30.7441 42.5715 30.758 42.429C30.7718 42.2865 30.8148 42.145 30.887 42.0044C30.959 41.8635 31.0519 41.746 31.1655 41.6521C31.2792 41.558 31.419 41.4858 31.5847 41.4357L34.6031 40.4968L33.8313 37.6156C33.7849 37.4429 33.7736 37.2847 33.7975 37.1409C33.8211 36.9971 33.8719 36.8578 33.9499 36.7227C34.0279 36.5877 34.1226 36.4749 34.2342 36.3845C34.3458 36.2937 34.4879 36.2253 34.6606 36.1792L37.1207 35.5197L37.5829 34.7193C36.313 33.4115 35.5783 31.8562 35.3787 30.0535C35.179 28.2509 35.5511 26.5321 36.4951 24.897C37.68 22.8448 39.4055 21.515 41.6715 20.9078C43.9375 20.3007 46.0967 20.5895 48.149 21.7744C50.2013 22.9593 51.531 24.6848 52.1382 26.9508C52.7454 29.2168 52.4565 31.376 51.2716 33.4283C50.2802 35.1454 48.9624 36.3298 47.3183 36.9813C45.6743 37.6329 43.9889 37.7794 42.2621 37.4209L36.4443 47.4975C36.3687 47.6285 36.2716 47.7415 36.1529 47.8366C36.0342 47.9317 35.8885 48.0023 35.7158 48.0485L33.6671 48.5974C33.5007 48.642 33.3478 48.656 33.2082 48.6394C33.0685 48.6226 32.9298 48.5744 32.7921 48.4949Z" fill="url(#paint1_linear_1430_1587)"/>
</g>
<path d="M32.3 57.78C32.796 57.78 33.172 57.676 33.428 57.468C33.692 57.252 33.824 56.976 33.824 56.64V56.544C33.824 56.176 33.704 55.884 33.464 55.668C33.224 55.452 32.896 55.344 32.48 55.344C31.712 55.344 31.112 55.708 30.68 56.436L29.66 55.512C29.98 55.056 30.368 54.7 30.824 54.444C31.28 54.18 31.848 54.048 32.528 54.048C33.112 54.048 33.624 54.14 34.064 54.324C34.512 54.508 34.86 54.776 35.108 55.128C35.356 55.472 35.48 55.876 35.48 56.34C35.48 56.876 35.32 57.32 35 57.672C34.688 58.016 34.288 58.244 33.8 58.356V58.416C34.336 58.52 34.776 58.756 35.12 59.124C35.464 59.492 35.636 59.972 35.636 60.564C35.636 61.076 35.5 61.528 35.228 61.92C34.964 62.312 34.588 62.616 34.1 62.832C33.62 63.048 33.064 63.156 32.432 63.156C31.664 63.156 31.036 63.008 30.548 62.712C30.06 62.416 29.656 62.024 29.336 61.536L30.488 60.636C30.712 61.028 30.976 61.332 31.28 61.548C31.584 61.756 31.968 61.86 32.432 61.86C32.928 61.86 33.312 61.74 33.584 61.5C33.856 61.252 33.992 60.912 33.992 60.48V60.384C33.992 59.968 33.848 59.652 33.56 59.436C33.272 59.212 32.856 59.1 32.312 59.1H31.424V57.78H32.3ZM37.9509 64.908H36.6669L40.2429 53.676H41.5389L37.9509 64.908ZM47.9827 61.284V63H46.4827V61.284H42.4747V59.94L46.0267 54.204H47.9827V60.048H49.1587V61.284H47.9827ZM46.4827 55.728H46.3747L43.7707 60.048H46.4827V55.728Z" fill="#323232"/>
<defs>
<linearGradient id="paint0_linear_1430_1587" x1="42.6835" y1="0" x2="42.6835" y2="80" gradientUnits="userSpaceOnUse">
<stop stop-color="#E9D169"/>
<stop offset="1" stop-color="#9C6C4C"/>
</linearGradient>
<linearGradient id="paint1_linear_1430_1587" x1="43.4472" y1="17.4599" x2="35.6837" y2="57.7273" gradientUnits="userSpaceOnUse">
<stop stop-color="#E9D169"/>
<stop offset="1" stop-color="#9C6C4C"/>
</linearGradient>
</defs>
</svg>
