<svg width="18" height="22" viewBox="0 0 18 22" fill="none" xmlns="http://www.w3.org/2000/svg">
<path d="M0.999837 12.1667C0.805393 12.0278 0.659559 11.875 0.562337 11.7083C0.465115 11.5417 0.416504 11.3472 0.416504 11.125C0.416504 10.9028 0.465115 10.7083 0.562337 10.5417C0.659559 10.375 0.805393 10.2222 0.999837 10.0833L15.7498 0.666667C15.8548 0.611111 15.9653 0.569444 16.0811 0.541667C16.1966 0.513889 16.3069 0.5 16.4119 0.5C16.7483 0.5 17.0415 0.611111 17.2915 0.833333C17.5415 1.05556 17.6665 1.36111 17.6665 1.75V20.5C17.6665 20.8889 17.5405 21.1944 17.2886 21.4167C17.0369 21.6389 16.7432 21.75 16.4073 21.75C16.3023 21.75 16.1926 21.7361 16.0782 21.7083C15.9634 21.6806 15.854 21.6389 15.7498 21.5833L0.999837 12.1667Z" fill="#FAFAFA"/>
</svg>
