<svg width="18" height="22" viewBox="0 0 18 22" fill="none" xmlns="http://www.w3.org/2000/svg">
<path d="M0.333496 20.25V1.5C0.333496 1.11111 0.458496 0.805556 0.708496 0.583333C0.958496 0.361111 1.25016 0.25 1.5835 0.25C1.69461 0.25 1.80572 0.263889 1.91683 0.291667C2.02794 0.319444 2.13905 0.361111 2.25016 0.416667L17.0002 9.83333C17.1946 9.97222 17.3404 10.125 17.4377 10.2917C17.5349 10.4583 17.5835 10.6528 17.5835 10.875C17.5835 11.0972 17.5349 11.2917 17.4377 11.4583C17.3404 11.625 17.1946 11.7778 17.0002 11.9167L2.25016 21.3333C2.13905 21.3889 2.02794 21.4306 1.91683 21.4583C1.80572 21.4861 1.69461 21.5 1.5835 21.5C1.25016 21.5 0.958496 21.3889 0.708496 21.1667C0.458496 20.9444 0.333496 20.6389 0.333496 20.25Z" fill="#FAFAFA"/>
</svg>
