<svg width="182" height="140" viewBox="0 0 182 140" fill="none" xmlns="http://www.w3.org/2000/svg">
<rect width="182" height="140" fill="#D9D9D9"/>
<path d="M45.616 64.64C48.496 64.8 50.948 65.068 52.972 65.444L52.66 67.016C50.868 66.624 48.444 66.348 45.388 66.188L45.616 64.64ZM45.7 68.048C48.068 68.2 50.252 68.476 52.252 68.876L51.94 70.424C50.14 70.04 47.976 69.764 45.448 69.596L45.7 68.048ZM44.644 71.588C46.164 71.684 47.696 71.84 49.24 72.056C50.792 72.264 52.148 72.496 53.308 72.752L52.984 74.312C51.84 74.072 50.476 73.848 48.892 73.64C47.316 73.432 45.816 73.28 44.392 73.184L44.644 71.588ZM60.088 70.016C59.944 69.208 59.672 68.152 59.272 66.848L60.736 66.524C61.088 67.756 61.352 68.804 61.528 69.668L60.088 70.016ZM58.588 73.52C59.668 73.072 60.536 72.56 61.192 71.984C61.856 71.408 62.368 70.708 62.728 69.884C63.088 69.052 63.336 68.016 63.472 66.776L64.984 67.004C64.824 68.348 64.532 69.508 64.108 70.484C63.692 71.46 63.104 72.308 62.344 73.028C61.592 73.748 60.624 74.372 59.44 74.9L58.588 73.52ZM57.448 70.592C57.208 69.512 56.908 68.436 56.548 67.364L58 66.98C58.344 67.988 58.648 69.064 58.912 70.208L57.448 70.592ZM72.664 67.22C71.664 66.684 70.5 66.212 69.172 65.804L69.772 64.34C71.028 64.716 72.22 65.2 73.348 65.792L72.664 67.22ZM68.788 72.632C70.172 72.432 71.352 72.1 72.328 71.636C73.304 71.164 74.144 70.516 74.848 69.692C75.552 68.86 76.176 67.796 76.72 66.5L78.208 67.46C77.632 68.812 76.944 69.952 76.144 70.88C75.344 71.808 74.38 72.56 73.252 73.136C72.124 73.704 70.784 74.108 69.232 74.348L68.788 72.632ZM71.776 70.268C70.664 69.708 69.464 69.228 68.176 68.828L68.764 67.328C69.364 67.512 69.988 67.732 70.636 67.988C71.284 68.244 71.88 68.512 72.424 68.792L71.776 70.268ZM87.052 74.084H81.268V72.74H87.052V71.096H81.568V69.776H87.052V68.192H81.352V66.848H88.432V74.624H87.052V74.084ZM96.076 68.18C95.02 67.436 93.836 66.764 92.524 66.164L93.376 64.688C93.944 64.944 94.548 65.252 95.188 65.612C95.828 65.972 96.444 66.348 97.036 66.74L96.076 68.18ZM92.764 72.392C94.172 72.144 95.348 71.78 96.292 71.3C97.236 70.82 98.036 70.176 98.692 69.368C99.348 68.552 99.936 67.504 100.456 66.224L101.932 67.16C101.38 68.496 100.72 69.624 99.952 70.544C99.184 71.464 98.252 72.216 97.156 72.8C96.068 73.376 94.76 73.808 93.232 74.096L92.764 72.392ZM109.192 64.88C110.16 64.88 111.024 65.072 111.784 65.456C112.552 65.832 113.148 66.364 113.572 67.052C114.004 67.732 114.22 68.504 114.22 69.368C114.22 70.792 113.82 71.928 113.02 72.776C112.22 73.616 111.056 74.116 109.528 74.276L109.096 72.74C110.336 72.596 111.228 72.26 111.772 71.732C112.316 71.196 112.588 70.424 112.588 69.416C112.588 68.576 112.356 67.896 111.892 67.376C111.436 66.856 110.78 66.528 109.924 66.392C109.74 68.008 109.496 69.336 109.192 70.376C108.896 71.408 108.52 72.184 108.064 72.704C107.616 73.224 107.072 73.484 106.432 73.484C105.96 73.484 105.524 73.364 105.124 73.124C104.724 72.884 104.4 72.516 104.152 72.02C103.904 71.516 103.78 70.888 103.78 70.136C103.78 69.128 104.012 68.224 104.476 67.424C104.94 66.624 105.584 66 106.408 65.552C107.232 65.104 108.16 64.88 109.192 64.88ZM106.42 71.84C106.652 71.84 106.884 71.652 107.116 71.276C107.356 70.892 107.58 70.296 107.788 69.488C108.004 68.672 108.192 67.64 108.352 66.392C107.768 66.496 107.248 66.72 106.792 67.064C106.336 67.408 105.98 67.848 105.724 68.384C105.476 68.912 105.352 69.492 105.352 70.124C105.352 70.676 105.448 71.1 105.64 71.396C105.832 71.692 106.092 71.84 106.42 71.84ZM124.888 65.636H117.088V67.028H115.672V64.352H126.328V67.028H124.888V65.636ZM126.472 71.12V72.416H124.456C124.36 73.032 124.224 73.536 124.048 73.928C123.88 74.296 123.628 74.548 123.292 74.684C122.964 74.82 122.536 74.888 122.008 74.888H119.8L119.416 73.568H121.996C122.196 73.568 122.36 73.532 122.488 73.46C122.616 73.388 122.712 73.272 122.776 73.112C122.84 72.952 122.904 72.72 122.968 72.416H115.528V71.12H123.148C123.164 70.936 123.18 70.668 123.196 70.316H116.812C117.428 68.58 117.86 67.108 118.108 65.9L119.548 66.032C119.508 66.24 119.44 66.544 119.344 66.944H124.504V68.192H119.008C118.952 68.392 118.86 68.692 118.732 69.092H124.66C124.66 69.78 124.64 70.456 124.6 71.12H126.472ZM128.68 66.272H132.196V65.792H127.54V64.664H132.196V63.908H133.612V64.664H138.46V65.792H133.612V66.272H137.308V71.42H128.68V66.272ZM130.048 67.76H135.916V67.28H130.048V67.76ZM135.916 68.6H130.048V69.08H135.916V68.6ZM130.048 69.92V70.412H135.916V69.92H130.048ZM138.556 71.852V73.004H135.256C136.208 73.244 137.296 73.596 138.52 74.06L137.776 75.116C136.32 74.524 135.016 74.096 133.864 73.832L134.428 73.004H131.332L132.088 73.736C130.88 74.392 129.54 74.848 128.068 75.104L127.456 74C128.688 73.792 129.816 73.46 130.84 73.004H127.444V71.852H138.556Z" fill="black"/>
</svg>
