<svg width="100" height="100" viewBox="0 0 100 100" fill="none" xmlns="http://www.w3.org/2000/svg">
<circle cx="50" cy="50" r="50" fill="#EDEDED"/>
<circle cx="50" cy="50" r="40" fill="#FAFAFA"/>
<path fill-rule="evenodd" clip-rule="evenodd" d="M15.3614 70.0178L6.70898 75.0181C8.39648 77.9381 10.3679 80.6677 12.5873 83.1708C16.143 87.1812 20.3352 90.6104 25.0156 93.3104C32.6174 97.6956 41.2395 100.003 50.0155 100C58.7914 99.9972 67.4121 97.6847 75.0111 93.2947C82.6102 88.9048 88.9199 82.592 93.3063 74.9909C97.6927 67.3898 100.001 58.7681 99.9998 49.9922C99.9984 41.2162 97.6872 32.5952 93.2984 24.9955C88.9097 17.3957 82.5979 11.085 74.9975 6.69742C70.3179 3.99597 65.2513 2.08217 59.9998 1.0102C56.7221 0.341124 53.3723 0 49.9998 0V10C72.0779 10 89.9782 27.8871 89.9998 49.9601M15.3614 70.0178C22.2668 81.941 35.1517 89.969 49.9142 89.9999C49.9469 90 49.9796 90 50.0123 90C50.0374 90 50.0625 90 50.0876 89.9999C72.1247 89.9525 89.9773 72.0846 89.9998 50.0417C89.9998 50.0278 89.9998 50.0139 89.9998 50C89.9998 49.9979 89.9998 49.9958 89.9998 49.9937" fill="url(#paint0_linear_159_160)"/>
<mask id="mask0_159_160" style="mask-type:alpha" maskUnits="userSpaceOnUse" x="23" y="19" width="55" height="55">
<rect x="43" y="19" width="40" height="40" transform="rotate(30 43 19)" fill="#D9D9D9"/>
</mask>
<g mask="url(#mask0_159_160)">
<path d="M51.8903 43.6665C53.1545 44.3964 54.483 44.5735 55.876 44.1981C57.2691 43.8223 58.3306 43.0024 59.0605 41.7382C59.7903 40.4741 59.9673 39.1456 59.5915 37.7527C59.216 36.3597 58.3962 35.2983 57.132 34.5684C55.8678 33.8386 54.5393 33.6614 53.1463 34.0369C51.7534 34.4127 50.6921 35.2327 49.9622 36.4969C49.2323 37.7611 49.0552 39.0895 49.4308 40.4822C49.8066 41.8754 50.6264 42.9368 51.8903 43.6665ZM41.5105 61.7781C41.3491 61.6849 41.2153 61.5728 41.109 61.4419C41.0026 61.3112 40.92 61.1487 40.8613 60.9544L39.19 55.2099C39.1312 55.0156 39.1099 54.835 39.1262 54.6679C39.1424 54.5009 39.1928 54.335 39.2774 54.1702C39.3619 54.005 39.4707 53.8674 39.6038 53.7573C39.7372 53.6469 39.901 53.5624 40.0953 53.5036L43.6333 52.4031L42.7287 49.0258C42.6742 48.8234 42.661 48.6379 42.6891 48.4693C42.7167 48.3009 42.7762 48.1375 42.8676 47.9792C42.959 47.8209 43.0701 47.6888 43.2009 47.5827C43.3316 47.4764 43.4982 47.3961 43.7007 47.3421L46.5844 46.5691L47.1261 45.6309C45.6376 44.0979 44.7763 42.2749 44.5424 40.1618C44.3083 38.0489 44.7445 36.0341 45.8511 34.1176C47.24 31.7119 49.2625 30.1533 51.9186 29.4416C54.5748 28.7298 57.1057 29.0684 59.5113 30.4573C61.917 31.8462 63.4756 33.8687 64.1873 36.5249C64.8991 39.1811 64.5605 41.7119 63.1716 44.1176C62.0095 46.1304 60.4648 47.5186 58.5376 48.2823C56.6105 49.0461 54.635 49.2179 52.6109 48.7976L45.7915 60.6091C45.7029 60.7625 45.589 60.895 45.4499 61.0065C45.3108 61.118 45.14 61.2008 44.9375 61.2549L42.5362 61.8983C42.3412 61.9506 42.1618 61.967 41.9982 61.9476C41.8345 61.9278 41.672 61.8713 41.5105 61.7781Z" fill="url(#paint1_linear_159_160)"/>
</g>
<path d="M40.1243 75.3203V73.8443L42.9083 71.3963C43.3883 70.9723 43.7363 70.5883 43.9523 70.2443C44.1683 69.9003 44.2763 69.5403 44.2763 69.1643V68.9843C44.2763 68.6003 44.1483 68.2963 43.8923 68.0723C43.6443 67.8483 43.3203 67.7363 42.9203 67.7363C42.1203 67.7363 41.5963 68.1843 41.3483 69.0803L39.9683 68.5403C40.1843 67.9003 40.5443 67.3803 41.0483 66.9803C41.5603 66.5723 42.2323 66.3683 43.0643 66.3683C43.6643 66.3683 44.1803 66.4803 44.6123 66.7043C45.0443 66.9283 45.3723 67.2403 45.5963 67.6403C45.8283 68.0323 45.9443 68.4803 45.9443 68.9843C45.9443 69.4403 45.8523 69.8603 45.6683 70.2443C45.4843 70.6283 45.2403 70.9803 44.9363 71.3003C44.6323 71.6203 44.2403 71.9763 43.7603 72.3683L41.8283 73.9883H46.1843V75.3203H40.1243ZM48.2829 77.2283H46.9989L50.5749 65.9963H51.8709L48.2829 77.2283ZM55.6867 70.1003C56.1827 70.1003 56.5587 69.9963 56.8147 69.7883C57.0787 69.5723 57.2107 69.2963 57.2107 68.9603V68.8643C57.2107 68.4963 57.0907 68.2043 56.8507 67.9883C56.6107 67.7723 56.2827 67.6643 55.8667 67.6643C55.0987 67.6643 54.4987 68.0283 54.0667 68.7563L53.0467 67.8323C53.3667 67.3763 53.7547 67.0203 54.2107 66.7643C54.6667 66.5003 55.2347 66.3683 55.9147 66.3683C56.4987 66.3683 57.0107 66.4603 57.4507 66.6443C57.8987 66.8283 58.2467 67.0963 58.4947 67.4483C58.7427 67.7923 58.8667 68.1963 58.8667 68.6603C58.8667 69.1963 58.7067 69.6403 58.3867 69.9923C58.0747 70.3363 57.6747 70.5643 57.1867 70.6763V70.7363C57.7227 70.8403 58.1627 71.0763 58.5067 71.4443C58.8507 71.8123 59.0227 72.2923 59.0227 72.8843C59.0227 73.3963 58.8867 73.8483 58.6147 74.2403C58.3507 74.6323 57.9747 74.9363 57.4867 75.1523C57.0067 75.3683 56.4507 75.4763 55.8187 75.4763C55.0507 75.4763 54.4227 75.3283 53.9347 75.0323C53.4467 74.7363 53.0427 74.3443 52.7227 73.8563L53.8747 72.9563C54.0987 73.3483 54.3627 73.6523 54.6667 73.8683C54.9707 74.0763 55.3547 74.1803 55.8187 74.1803C56.3147 74.1803 56.6987 74.0603 56.9707 73.8203C57.2427 73.5723 57.3787 73.2323 57.3787 72.8003V72.7043C57.3787 72.2883 57.2347 71.9723 56.9467 71.7563C56.6587 71.5323 56.2427 71.4203 55.6987 71.4203H54.8107V70.1003H55.6867Z" fill="#323232"/>
<defs>
<linearGradient id="paint0_linear_159_160" x1="53.3544" y1="0" x2="53.3544" y2="100" gradientUnits="userSpaceOnUse">
<stop stop-color="#E9D169"/>
<stop offset="1" stop-color="#9C6C4C"/>
</linearGradient>
<linearGradient id="paint1_linear_159_160" x1="54" y1="25.4" x2="44.9" y2="72.6" gradientUnits="userSpaceOnUse">
<stop stop-color="#202020"/>
<stop offset="1" stop-color="#323232"/>
</linearGradient>
</defs>
</svg>
